<svg width="409" height="65" viewBox="0 0 409 65" fill="none" xmlns="http://www.w3.org/2000/svg">
<path d="M31.5218 2L58.838 49.25H4.2056L31.5218 2Z" fill="#077644"/>
<mask id="mask0_12_162" style="mask-type:alpha" maskUnits="userSpaceOnUse" x="4" y="2" width="55" height="48">
<path d="M31.5421 2L58.8583 49.25H4.22583L31.5421 2Z" fill="#D9D9D9"/>
</mask>
<g mask="url(#mask0_12_162)">
<rect x="31.5421" y="2" width="27.3365" height="47.46" fill="#F4BCBB"/>
</g>
<ellipse cx="88.1075" cy="25.31" rx="23.7617" ry="23.73" fill="#3038FF"/>
<mask id="mask1_12_162" style="mask-type:alpha" maskUnits="userSpaceOnUse" x="64" y="1" width="48" height="49">
<ellipse cx="88.1075" cy="25.31" rx="23.7617" ry="23.73" fill="#D9D9D9"/>
</mask>
<g mask="url(#mask1_12_162)">
<rect x="88.3177" y="25.1" width="23.5514" height="23.94" fill="#3038FF"/>
</g>
<mask id="mask2_12_162" style="mask-type:alpha" maskUnits="userSpaceOnUse" x="64" y="1" width="48" height="49">
<ellipse cx="88.1075" cy="25.31" rx="23.7617" ry="23.73" fill="#D9D9D9"/>
</mask>
<g mask="url(#mask2_12_162)">
<rect x="88.3177" y="1.58" width="23.5514" height="23.52" fill="#077644"/>
</g>
<mask id="mask3_12_162" style="mask-type:alpha" maskUnits="userSpaceOnUse" x="64" y="1" width="48" height="49">
<ellipse cx="88.1075" cy="25.31" rx="23.7617" ry="23.73" fill="#D9D9D9"/>
</mask>
<g mask="url(#mask3_12_162)">
<rect x="64.3458" y="25.1" width="23.972" height="23.94" fill="#F4BCBB"/>
</g>
<path d="M118.913 48.3521L140.061 1.50558H140.521L161.669 48.3521H152.869L137.96 12.8155L143.477 9.29274L126.466 48.3521H118.913ZM132.18 31.6654H148.534L151.161 37.7838H129.881L132.18 31.6654Z" fill="#F4BCBB"/>
<path d="M171.667 22.2095L172.324 29.6259L172.061 28.5752C172.849 27.0096 173.922 25.6705 175.279 24.558C176.68 23.4044 178.103 22.5391 179.548 21.9623C180.993 21.3443 182.176 21.0353 183.095 21.0353L182.767 27.9572C180.665 27.7924 178.826 28.1632 177.25 29.0696C175.717 29.9349 174.513 31.0885 173.637 32.5306C172.805 33.9727 172.389 35.4971 172.389 37.104V48.3521H165.033V22.2095H171.667Z" fill="#F4BCBB"/>
<path d="M187.341 22.2095H194.697V48.3521H187.341V22.2095ZM187.013 12.8773C187.013 11.8061 187.451 10.9202 188.326 10.2198C189.246 9.51935 190.231 9.16914 191.282 9.16914C192.333 9.16914 193.274 9.51935 194.106 10.2198C194.982 10.9202 195.42 11.8061 195.42 12.8773C195.42 13.9486 194.982 14.8344 194.106 15.5348C193.274 16.1941 192.333 16.5237 191.282 16.5237C190.231 16.5237 189.246 16.1735 188.326 15.473C187.451 14.7726 187.013 13.9074 187.013 12.8773Z" fill="#F4BCBB"/>
<path d="M213.194 49.032C210.567 49.032 208.18 48.5169 206.035 47.4869C203.933 46.4568 202.269 44.9324 201.043 42.9135C199.817 40.8534 199.204 38.3195 199.204 35.3117C199.204 32.3452 199.839 29.8113 201.109 27.71C202.422 25.5675 204.13 23.9194 206.232 22.7658C208.377 21.6121 210.698 21.0353 213.194 21.0353C215.865 21.0353 218.01 21.5297 219.63 22.5185C221.294 23.5074 222.586 24.6816 223.505 26.0413L223.111 27.0302L223.834 22.2095H230.599V48.3521H223.243V41.9864L223.965 43.6551C223.79 43.9023 223.44 44.3143 222.914 44.8912C222.389 45.4268 221.666 46.0242 220.747 46.6835C219.827 47.3427 218.733 47.8989 217.463 48.3521C216.237 48.8054 214.814 49.032 213.194 49.032ZM215.23 43.3461C216.543 43.3461 217.726 43.1195 218.776 42.6663C219.871 42.2131 220.791 41.5744 221.535 40.7504C222.323 39.9263 222.892 38.9375 223.243 37.7838V32.098C222.892 31.0267 222.323 30.0997 221.535 29.3169C220.747 28.4928 219.784 27.8542 218.645 27.401C217.55 26.9478 216.324 26.7211 214.967 26.7211C213.478 26.7211 212.099 27.0714 210.829 27.7718C209.56 28.4722 208.531 29.4405 207.742 30.6765C206.998 31.9126 206.626 33.334 206.626 34.9409C206.626 36.5066 207.02 37.9281 207.808 39.2053C208.596 40.4826 209.647 41.492 210.961 42.2337C212.274 42.9753 213.697 43.3461 215.23 43.3461Z" fill="#F4BCBB"/>
<path d="M253.781 25.9177C253.781 22.7864 254.416 19.8404 255.686 17.0799C256.956 14.3194 258.707 11.8679 260.94 9.72536C263.173 7.58286 265.756 5.91418 268.69 4.71933C271.668 3.48327 274.842 2.86524 278.214 2.86524C281.541 2.86524 284.672 3.48327 287.606 4.71933C290.583 5.91418 293.188 7.58286 295.421 9.72536C297.698 11.8679 299.471 14.3194 300.741 17.0799C302.055 19.8404 302.712 22.7864 302.712 25.9177C302.712 29.0902 302.055 32.0568 300.741 34.8173C299.471 37.5778 297.698 40.0294 295.421 42.1718C293.188 44.2731 290.583 45.9212 287.606 47.1161C284.672 48.2697 281.541 48.8466 278.214 48.8466C274.798 48.8466 271.624 48.2697 268.69 47.1161C265.756 45.9212 263.173 44.2938 260.94 42.2337C258.707 40.1324 256.956 37.7014 255.686 34.9409C254.416 32.1392 253.781 29.1315 253.781 25.9177ZM261.663 25.9177C261.663 28.1426 262.078 30.2233 262.91 32.1598C263.786 34.0963 264.99 35.8062 266.523 37.2894C268.055 38.7315 269.829 39.8645 271.843 40.6886C273.857 41.5126 276.046 41.9246 278.411 41.9246C280.687 41.9246 282.811 41.5126 284.781 40.6886C286.795 39.8645 288.547 38.7315 290.036 37.2894C291.524 35.8062 292.685 34.0963 293.517 32.1598C294.392 30.2233 294.83 28.1426 294.83 25.9177C294.83 23.6516 294.392 21.5503 293.517 19.6138C292.641 17.6773 291.459 15.9674 289.97 14.4842C288.481 13.0009 286.73 11.8473 284.716 11.0232C282.702 10.1992 280.534 9.78716 278.214 9.78716C275.893 9.78716 273.725 10.1992 271.711 11.0232C269.697 11.8473 267.924 13.0009 266.391 14.4842C264.903 15.9674 263.742 17.6979 262.91 19.6756C262.078 21.6121 261.663 23.6928 261.663 25.9177Z" fill="#F4BCBB"/>
<path d="M316.469 48.9084C314.367 48.9084 312.353 48.5581 310.427 47.8577C308.544 47.1573 306.946 46.1272 305.632 44.7676L308.785 40.874C310.011 41.9864 311.215 42.8105 312.397 43.3461C313.623 43.8405 314.783 44.0877 315.878 44.0877C316.71 44.0877 317.454 44.0053 318.111 43.8405C318.812 43.6345 319.359 43.3255 319.753 42.9135C320.191 42.5015 320.41 41.9452 320.41 41.2448C320.41 40.4208 320.103 39.7821 319.49 39.3289C318.877 38.8345 318.089 38.4431 317.126 38.1547C316.163 37.8251 315.156 37.516 314.105 37.2276C311.697 36.5272 309.901 35.4971 308.719 34.1375C307.537 32.7778 306.946 31.2121 306.946 29.4405C306.946 28.0808 307.318 26.7829 308.062 25.5469C308.807 24.2696 309.945 23.219 311.478 22.3949C313.01 21.5709 314.937 21.1589 317.257 21.1589C319.359 21.1589 321.176 21.3855 322.709 21.8387C324.285 22.2507 325.752 22.9718 327.109 24.0018L324.285 28.1426C323.497 27.4422 322.555 26.9065 321.461 26.5357C320.41 26.1237 319.447 25.8971 318.571 25.8559C317.783 25.8147 317.082 25.9177 316.469 26.1649C315.856 26.3709 315.353 26.6799 314.959 27.092C314.608 27.504 314.433 27.9778 314.433 28.5134C314.389 29.3375 314.674 29.9967 315.287 30.4911C315.944 30.9855 316.776 31.377 317.783 31.6654C318.79 31.9538 319.797 32.2628 320.804 32.5924C322.161 32.9632 323.365 33.4783 324.416 34.1375C325.467 34.7967 326.277 35.6002 326.846 36.5478C327.459 37.4542 327.766 38.5873 327.766 39.9469C327.766 41.5126 327.35 42.9959 326.518 44.3968C325.686 45.7564 324.438 46.8483 322.774 47.6723C321.11 48.4963 319.009 48.9084 316.469 48.9084Z" fill="#F4BCBB"/>
<path d="M332.616 0.14592H339.972V48.3521H332.616V0.14592Z" fill="#F4BCBB"/>
<path d="M344.48 35.0027C344.48 32.3658 345.136 29.9967 346.45 27.8954C347.763 25.7529 349.602 24.0842 351.967 22.8894C354.375 21.6533 357.09 21.0353 360.111 21.0353C363.22 21.0353 365.913 21.6533 368.19 22.8894C370.51 24.0842 372.305 25.7529 373.575 27.8954C374.845 29.9967 375.48 32.3658 375.48 35.0027C375.48 37.6396 374.845 40.0294 373.575 42.1718C372.305 44.2731 370.51 45.9418 368.19 47.1779C365.913 48.4139 363.198 49.032 360.045 49.032C357.068 49.032 354.397 48.4757 352.033 47.3633C349.668 46.2096 347.807 44.5822 346.45 42.4809C345.136 40.3796 344.48 37.8869 344.48 35.0027ZM351.901 35.0645C351.901 36.589 352.252 37.9899 352.952 39.2671C353.653 40.5032 354.616 41.492 355.842 42.2337C357.068 42.9753 358.425 43.3461 359.914 43.3461C361.534 43.3461 362.935 42.9753 364.117 42.2337C365.343 41.492 366.285 40.5032 366.942 39.2671C367.642 37.9899 367.992 36.589 367.992 35.0645C367.992 33.4989 367.642 32.098 366.942 30.8619C366.285 29.5847 365.343 28.5752 364.117 27.8336C362.935 27.092 361.534 26.7211 359.914 26.7211C358.382 26.7211 357.002 27.1126 355.776 27.8954C354.594 28.637 353.653 29.6259 352.952 30.8619C352.252 32.098 351.901 33.4989 351.901 35.0645Z" fill="#F4BCBB"/>
</svg>
